<?xml version="1.0" standalone="no"?>
<!DOCTYPE svg PUBLIC "-//W3C//DTD SVG 20010904//EN"
 "http://www.w3.org/TR/2001/REC-SVG-20010904/DTD/svg10.dtd">
<svg version="1.0" xmlns="http://www.w3.org/2000/svg"
 width="109.000000pt" height="109.000000pt" viewBox="0 0 109.000000 109.000000"
 preserveAspectRatio="xMidYMid meet">
<metadata>
Created by potrace 1.14, written by Peter Selinger 2001-2017
</metadata>
<g transform="translate(0.000000,109.000000) scale(0.100000,-0.100000)"
fill="#000000" stroke="none">
<path d="M430 878 c-52 -31 -104 -62 -115 -67 -11 -6 -51 -30 -90 -54 l-70
-44 -2 -231 c-2 -229 -1 -231 20 -239 12 -4 27 -6 32 -4 6 1 7 -1 3 -4 -10
-11 151 -106 165 -98 7 3 9 2 4 -2 -4 -5 5 -16 20 -26 20 -13 30 -15 40 -7 10
8 12 7 7 -5 -6 -17 23 -38 53 -36 10 0 13 3 6 6 -7 2 -13 9 -13 14 0 11 32 -1
42 -15 5 -7 8 -7 8 -1 0 15 -13 30 -27 31 -46 4 -46 4 -22 24 13 10 18 19 12
20 -7 0 -13 -4 -13 -10 0 -5 -8 -10 -17 -10 -15 0 -16 2 -3 10 12 8 9 10 -13
10 -16 0 -26 4 -23 8 7 12 -25 73 -35 66 -5 -3 -9 -1 -9 4 0 6 6 12 13 15 14
5 39 -18 29 -28 -4 -4 -1 -5 7 -3 7 2 16 -3 19 -11 2 -8 0 -11 -6 -7 -6 3 -9
-1 -8 -11 2 -13 12 -18 32 -18 45 0 59 -13 38 -36 -16 -18 -16 -19 -1 -13 16
6 21 17 18 37 -2 14 12 7 35 -19 23 -24 44 -25 44 -3 0 6 -5 7 -12 3 -7 -4 -8
-3 -4 4 4 7 2 12 -3 12 -6 0 -11 -5 -11 -12 0 -6 -7 -3 -15 8 -19 25 -19 40 0
24 8 -6 18 -9 23 -6 6 3 16 -4 24 -17 13 -19 12 -24 -4 -39 -10 -10 -18 -15
-18 -10 0 4 -11 12 -25 19 -14 6 -25 7 -25 2 0 -5 4 -9 9 -9 6 0 8 -8 6 -18
-2 -11 3 -19 11 -19 9 0 13 6 9 15 -4 12 -3 12 9 3 11 -9 17 -9 28 1 7 7 35
24 61 38 26 13 47 28 47 33 0 4 4 6 8 3 4 -2 18 4 31 13 26 20 21 44 -6 34
-11 -4 -14 -3 -9 5 11 19 -5 14 -20 -5 -18 -24 -17 -38 1 -23 9 7 18 10 22 6
3 -3 1 -6 -6 -6 -7 0 -10 -4 -7 -9 8 -13 -19 -8 -36 7 -8 6 -18 9 -22 5 -4 -4
3 -12 15 -19 14 -7 18 -14 10 -18 -6 -4 -11 -2 -11 3 0 6 -5 11 -11 11 -6 0
-9 -7 -6 -15 4 -8 2 -17 -3 -20 -4 -3 -7 6 -5 20 1 14 1 25 -1 25 -12 0 -34
-14 -34 -22 0 -5 5 -6 10 -3 6 3 10 1 10 -5 0 -7 -6 -10 -12 -7 -7 2 -13 11
-13 20 0 9 -6 22 -13 29 -11 11 -12 10 -7 -2 4 -11 -1 -16 -15 -17 -11 -1 -20
2 -20 8 0 5 5 9 12 9 6 0 9 3 6 6 -4 3 -15 1 -26 -5 -14 -7 -24 -6 -40 5 -12
8 -22 11 -22 5 0 -5 9 -13 20 -16 11 -4 18 -11 15 -16 -4 -5 -17 -2 -30 7 -15
10 -25 12 -30 5 -3 -6 -12 -11 -18 -11 -7 1 -2 9 9 18 28 23 27 68 -1 64 -16
-3 -17 -2 -6 12 13 15 15 15 33 -1 10 -9 16 -24 13 -32 -3 -8 -3 -12 1 -8 4 4
12 0 18 -9 15 -19 41 -10 43 16 1 16 -1 17 -12 7 -7 -6 -11 -15 -8 -19 2 -5 1
-8 -4 -8 -13 0 -43 59 -33 65 5 3 11 -4 15 -15 3 -11 11 -20 16 -20 5 0 3 10
-6 23 -8 13 -12 27 -8 31 4 4 0 4 -9 1 -10 -4 -22 2 -32 17 -9 12 -16 17 -16
11 0 -6 7 -16 15 -23 8 -7 15 -17 15 -23 0 -7 -12 1 -27 16 -21 21 -25 29 -15
39 9 9 16 7 33 -8 12 -10 24 -18 28 -18 10 2 53 -18 82 -38 14 -9 29 -14 33
-11 4 4 4 0 0 -10 -6 -16 10 -23 39 -18 5 1 6 -3 2 -9 -4 -6 -16 -8 -28 -4
-21 6 -21 5 -4 -12 16 -17 18 -17 33 -2 18 18 12 50 -8 44 -7 -1 -10 -1 -5 1
4 3 7 13 7 24 0 10 5 19 10 19 6 0 10 6 9 13 -1 6 3 26 10 42 7 17 17 40 22
52 6 15 14 20 28 16 24 -6 26 -14 9 -32 -11 -11 -10 -12 1 -6 9 5 12 3 9 -6
-3 -8 -12 -13 -20 -11 -8 1 -23 -7 -33 -18 -14 -16 -15 -22 -5 -35 8 -10 9
-15 1 -15 -6 0 -11 -6 -11 -12 1 -7 10 -2 20 11 11 13 20 28 20 35 0 6 -4 4
-10 -4 -5 -8 -12 -11 -16 -7 -7 7 13 37 26 37 4 0 10 -10 13 -22 5 -16 -3 -30
-29 -55 -20 -18 -31 -33 -26 -33 5 0 15 7 22 15 7 9 19 14 26 11 9 -3 11 1 7
12 -6 14 -4 15 9 4 13 -10 17 -10 22 4 4 10 0 21 -10 29 -18 13 -13 45 7 45 9
0 9 -3 0 -14 -14 -16 8 -29 28 -16 11 6 71 5 76 -2 1 -2 5 -15 9 -30 5 -24 3
-26 -20 -23 -14 1 -31 -4 -39 -11 -15 -16 -29 -19 -21 -5 3 5 -1 12 -10 15
-12 4 -15 2 -11 -9 5 -11 -1 -14 -25 -11 -23 3 -38 -3 -56 -21 -13 -13 -21
-27 -17 -31 3 -4 14 3 23 14 13 16 27 21 57 20 23 -1 46 -5 51 -9 6 -3 22 4
35 16 13 12 25 21 26 20 19 -18 23 21 23 225 0 218 -1 228 -20 240 -12 7 -25
10 -31 7 -5 -4 -8 -2 -7 4 2 6 -15 21 -37 34 -22 12 -42 25 -45 29 -3 3 -12 8
-20 10 -8 2 -23 11 -34 21 -11 10 -26 15 -34 12 -7 -2 -11 -1 -8 3 3 4 -30 28
-72 53 l-77 45 -95 -58z m137 6 c3 -7 10 -11 16 -7 6 3 7 1 3 -5 -4 -7 -4 -12
1 -12 11 0 34 -51 27 -62 -3 -5 0 -15 6 -23 20 -24 -5 -17 -28 8 -21 22 -20
37 0 37 5 0 6 -5 2 -12 -5 -7 -3 -8 5 -3 9 5 9 11 3 17 -6 6 -16 7 -24 2 -7
-5 -25 -9 -41 -10 -23 -1 -25 1 -16 12 7 8 19 12 28 9 33 -10 40 9 14 40 -15
18 -21 22 -14 9 10 -21 6 -34 -10 -34 -5 0 -6 8 -3 18 5 14 4 15 -5 2 -9 -13
-12 -13 -20 -1 -15 23 9 52 32 40 10 -6 21 -17 24 -25z m-39 -40 c1 -1 -5 -7
-15 -15 -15 -12 -16 -12 -10 3 4 12 2 15 -9 11 -23 -9 10 -40 42 -40 36 0 39
-8 16 -47 -20 -34 -20 -35 -2 -41 10 -3 28 0 39 7 18 11 23 10 36 -7 11 -15
14 -16 9 -3 -4 12 -1 16 13 13 10 -2 23 -4 29 -4 18 -2 13 -61 -5 -62 -44 -4
-75 1 -83 13 -7 10 -8 8 -4 -4 3 -10 -2 -22 -12 -27 -9 -6 -14 -11 -9 -11 4 0
16 6 27 12 16 11 22 9 34 -7 15 -20 15 -20 29 -1 15 20 47 16 47 -6 0 -9 -3
-9 -12 0 -9 9 -14 7 -24 -6 -16 -21 -17 -32 -4 -32 5 0 9 5 7 11 -1 6 4 14 11
16 7 3 11 1 10 -4 -2 -4 2 -9 7 -10 6 -2 10 0 10 5 0 4 4 12 7 18 9 14 58 15
58 2 0 -5 5 -6 11 -2 8 5 9 2 1 -12 -7 -13 -30 -22 -72 -30 l-61 -11 -23 33
c-16 24 -26 30 -33 23 -15 -15 -85 -19 -80 -5 2 6 13 10 23 8 12 -2 15 0 7 5
-16 12 -26 66 -10 60 7 -2 12 -12 12 -22 0 -10 6 -19 13 -21 7 -1 8 0 2 3 -5
2 -10 10 -10 16 0 5 3 8 6 4 4 -3 13 0 21 8 17 18 34 19 30 3 -1 -7 12 -12 33
-13 19 -1 29 0 22 2 -10 4 -10 8 -1 19 15 19 2 18 -17 -1 -16 -16 -35 -20 -33
-7 5 27 -2 32 -25 17 -20 -14 -28 -14 -45 -3 -22 13 -27 33 -12 42 12 8 21 46
11 46 -5 0 -10 -10 -12 -22 -2 -17 -9 -22 -23 -20 -13 2 -16 0 -8 -5 16 -12
26 -66 10 -60 -7 2 -11 11 -9 20 1 8 -2 18 -8 22 -6 4 -7 -1 -3 -11 4 -10 2
-15 -3 -11 -6 3 -15 2 -22 -2 -9 -5 -7 -13 8 -29 22 -23 26 -37 8 -26 -7 5 -9
2 -5 -9 3 -9 -2 -26 -12 -39 -10 -13 -16 -30 -13 -38 4 -13 3 -13 -11 -2 -15
13 -14 16 5 43 12 16 19 32 15 36 -4 3 -7 1 -7 -5 0 -7 -4 -12 -9 -12 -5 0 -8
11 -8 25 0 25 11 34 20 15 3 -6 4 -5 3 2 -2 7 -9 13 -17 13 -17 0 -21 -44 -7
-62 7 -9 7 -13 0 -13 -30 0 -36 65 -8 85 14 11 13 13 -10 13 -18 0 -22 -3 -13
-9 11 -7 11 -9 1 -9 -7 0 -11 -4 -8 -9 3 -5 -1 -11 -9 -15 -8 -3 -17 -1 -20 4
-4 6 -2 10 2 10 5 0 13 10 18 22 7 16 19 23 40 23 17 0 31 4 32 9 1 5 7 13 15
18 10 8 10 9 -2 5 -8 -2 -14 -9 -13 -14 1 -6 -9 -10 -22 -10 -34 0 -31 12 5
27 17 7 29 15 26 17 -2 3 -15 -1 -27 -8 l-23 -12 18 29 c10 16 26 35 35 42 9
7 15 16 15 20 -1 4 1 13 3 20 4 10 9 10 22 0 9 -7 17 -13 19 -14z m42 6 c0 -5
-5 -10 -11 -10 -5 0 -7 5 -4 10 3 6 8 10 11 10 2 0 4 -4 4 -10z m75 -82 c-3
-23 -2 -28 5 -18 7 12 14 9 39 -17 16 -17 32 -29 35 -27 4 2 2 -2 -4 -8 -11
-13 -14 -36 -4 -25 6 5 34 -16 34 -25 0 -2 -12 -4 -27 -3 -25 0 -28 4 -28 37
0 45 -2 48 -55 53 -24 3 -48 10 -53 17 -6 9 -7 8 -3 -5 3 -11 0 -20 -10 -24
-29 -11 -28 3 3 56 2 2 12 -4 22 -13 25 -23 45 -13 31 15 -8 15 -7 19 4 19 11
0 13 -9 11 -32z m185 -58 c0 -5 -5 -10 -11 -10 -5 0 -7 5 -4 10 3 6 8 10 11
10 2 0 4 -4 4 -10z m-310 -55 c0 -6 -5 -16 -11 -22 -13 -13 -2 -36 13 -27 6 4
9 1 6 -7 -3 -8 -14 -13 -24 -11 -12 2 -15 0 -7 -5 16 -12 20 -45 5 -50 -7 -3
-10 1 -7 10 3 7 -1 20 -10 27 -20 17 -19 30 3 30 12 0 13 3 5 8 -10 7 -10 12
1 27 12 17 12 21 -5 33 -10 7 -19 18 -19 23 0 13 49 -23 50 -36z m-120 -17 c0
-5 -4 -7 -9 -4 -5 3 -12 -1 -15 -10 -3 -8 -11 -12 -17 -8 -8 4 -9 3 -5 -4 4
-7 2 -12 -3 -12 -12 0 -14 11 -5 33 6 16 54 20 54 5z m250 8 c0 -3 -4 -8 -10
-11 -5 -3 -10 -1 -10 4 0 6 5 11 10 11 6 0 10 -2 10 -4z m-242 -38 c16 -16 15
-25 -3 -25 -10 0 -14 6 -10 16 5 11 1 11 -14 -3 -11 -10 -17 -24 -14 -32 3 -9
0 -14 -8 -12 -8 2 -14 -8 -15 -27 -2 -20 0 -25 5 -16 5 8 7 20 4 28 -3 8 -2
13 3 12 28 -5 36 1 24 16 -11 13 -10 15 6 12 33 -5 45 -17 38 -40 -6 -20 -6
-20 10 -4 10 9 22 17 28 17 6 0 6 6 -2 15 -15 18 1 20 18 3 16 -16 15 -28 -3
-28 -8 0 -15 -5 -15 -11 0 -5 -4 -8 -9 -4 -5 3 -13 0 -16 -6 -4 -5 -13 -8 -21
-5 -7 3 -16 1 -20 -5 -3 -6 -12 -8 -20 -5 -7 3 -16 1 -20 -5 -3 -6 -12 -8 -19
-5 -7 2 -18 -1 -24 -7 -10 -9 -16 -7 -28 8 -15 20 -15 20 -11 0 4 -16 0 -21
-16 -22 -12 -1 -15 1 -8 4 6 3 12 10 12 18 0 7 7 18 15 25 8 7 12 17 8 23 -4
6 0 8 11 4 11 -4 16 -2 14 6 -3 20 13 58 23 52 5 -4 9 -11 9 -16 0 -6 -4 -7
-10 -4 -6 3 -7 -1 -4 -9 3 -9 -4 -25 -19 -38 l-25 -23 24 -1 c14 -1 24 3 23
10 -3 24 2 35 27 65 29 34 35 36 52 19z m200 0 c-2 -4 6 -14 17 -22 22 -16 25
-14 -49 -34 -22 -6 -43 -9 -48 -6 -13 8 -9 34 7 40 8 4 12 11 8 17 -4 6 0 8 9
5 8 -4 21 -2 29 3 15 9 32 8 27 -3z m212 -102 c6 -22 13 -47 15 -54 3 -7 0
-10 -5 -7 -5 3 -7 0 -4 -8 3 -8 -3 -20 -12 -28 -15 -12 -16 -12 -10 7 8 27
-14 57 -37 48 -9 -3 -17 -11 -17 -16 0 -6 7 -5 15 2 21 17 28 7 28 -40 0 -35
2 -38 13 -22 16 21 18 8 3 -19 -8 -16 -13 -18 -24 -9 -8 6 -11 18 -8 26 3 8
-5 17 -21 24 -33 12 -34 22 -1 14 14 -3 25 -2 25 4 0 5 -7 9 -16 8 -23 -2 -28
18 -10 37 17 16 56 12 56 -6 0 -6 2 -8 5 -5 13 13 -8 36 -31 33 -27 -3 -31 7
-10 25 8 6 12 18 9 26 -4 10 0 12 11 8 9 -3 21 -25 26 -48z m-541 -86 c16 0
41 -18 41 -29 0 -4 -12 -7 -27 -8 -26 -1 -26 0 -9 13 18 13 17 13 -7 11 -26
-2 -28 0 -26 26 0 10 2 10 6 0 2 -7 12 -13 22 -13z m570 -31 c-6 -12 -5 -20 3
-25 7 -4 8 -3 4 4 -4 7 -2 12 4 12 7 0 9 -8 5 -21 -5 -15 -4 -19 4 -15 6 4 11
3 11 -3 0 -6 -14 -9 -32 -7 -18 2 -39 -1 -45 -6 -9 -7 -13 -7 -13 0 0 5 7 15
15 22 12 10 18 10 33 -1 14 -11 13 -10 -2 9 -13 15 -15 22 -6 22 9 0 10 3 1
13 -8 10 -7 17 1 25 17 17 30 -6 17 -29z m-619 1 c0 -5 -2 -10 -4 -10 -3 0 -8
5 -11 10 -3 6 -1 10 4 10 6 0 11 -4 11 -10z m120 1 c0 -4 20 -16 45 -25 53
-21 63 -33 41 -49 -9 -7 -15 -23 -14 -36 4 -30 -26 -52 -44 -32 -11 11 -10 12
1 6 10 -6 12 -4 7 4 -5 7 -14 10 -22 7 -8 -3 -13 0 -11 7 1 7 -4 11 -10 9 -18
-3 -16 2 9 24 19 17 21 17 15 2 -3 -10 -2 -20 3 -23 4 -3 6 7 4 22 -3 16 -5
37 -5 48 0 20 0 20 -15 0 -8 -11 -12 -25 -10 -32 3 -7 1 -13 -4 -13 -14 0 -41
31 -35 40 3 5 -1 10 -7 13 -7 2 -9 8 -5 13 9 10 28 -16 21 -28 -3 -4 -1 -8 4
-8 11 0 25 30 17 38 -3 3 -5 -1 -5 -8 0 -7 -2 -11 -5 -8 -8 7 5 38 16 38 5 0
9 -4 9 -9z m-130 -55 c0 -2 -8 -10 -17 -17 -16 -13 -17 -12 -4 4 13 16 21 21
21 13z m65 -14 c-3 -3 -11 0 -18 7 -9 10 -8 11 6 5 10 -3 15 -9 12 -12z m170
-58 c-18 -19 -9 -49 11 -33 10 8 13 6 11 -10 -2 -26 -5 -26 -34 1 -21 20 -22
23 -6 40 9 11 11 18 5 18 -7 0 -12 7 -12 17 0 15 2 14 20 -2 16 -15 17 -19 5
-31z m320 26 c3 -5 1 -10 -4 -10 -6 0 -11 5 -11 10 0 6 2 10 4 10 3 0 8 -4 11
-10z m-585 -14 c0 -3 -4 -8 -10 -11 -5 -3 -10 -1 -10 4 0 6 5 11 10 11 6 0 10
-2 10 -4z m140 -10 c0 -2 -8 -10 -17 -17 -16 -13 -17 -12 -4 4 13 16 21 21 21
13z m-75 -16 c3 -6 -1 -7 -9 -4 -18 7 -21 14 -7 14 6 0 13 -4 16 -10z m595
-10 c-6 -11 -13 -20 -16 -20 -2 0 0 9 6 20 6 11 13 20 16 20 2 0 0 -9 -6 -20z"/>
<path d="M459 789 l-24 -21 28 17 c28 16 29 16 22 -4 -4 -13 -2 -21 5 -21 6 0
8 5 5 10 -3 6 -2 10 4 10 5 0 12 -6 14 -12 3 -8 6 -8 6 -2 1 6 -7 18 -18 28
-17 16 -20 15 -42 -5z"/>
<path d="M720 610 c0 -5 5 -10 10 -10 6 0 10 5 10 10 0 6 -4 10 -10 10 -5 0
-10 -4 -10 -10z"/>
<path d="M750 610 c0 -5 5 -10 10 -10 6 0 10 5 10 10 0 6 -4 10 -10 10 -5 0
-10 -4 -10 -10z"/>
<path d="M395 546 c-18 -19 -26 -36 -18 -36 9 0 37 40 31 45 -2 2 -8 -2 -13
-9z"/>
<path d="M582 601 c-10 -6 -10 -10 2 -20 9 -7 21 -11 28 -8 8 3 6 6 -6 6 -12
1 -16 6 -12 16 6 17 6 18 -12 6z"/>
<path d="M536 571 c-3 -5 5 -8 18 -7 13 0 22 4 19 9 -6 10 -31 9 -37 -2z"/>
<path d="M790 520 c-13 -8 -12 -10 3 -10 9 0 17 5 17 10 0 12 -1 12 -20 0z"/>
<path d="M385 345 c4 -11 7 -32 6 -47 -1 -15 4 -30 11 -34 8 -5 9 -2 4 11 -4
10 0 28 9 41 14 21 11 26 -11 23 -4 0 -11 5 -16 13 -7 9 -8 7 -3 -7z"/>
<path d="M727 383 c-10 -10 -8 -23 4 -23 5 0 8 4 5 9 -4 5 0 12 6 14 7 3 8 6
2 6 -6 1 -14 -2 -17 -6z"/>
<path d="M821 293 c12 -15 12 -16 -6 -9 -14 5 -17 4 -9 -4 12 -12 44 -4 44 11
0 5 5 9 11 9 5 0 7 -4 4 -10 -3 -5 -1 -10 4 -10 6 0 11 4 11 9 0 17 -20 23
-35 11 -11 -9 -15 -9 -15 -1 0 6 -5 11 -11 11 -8 0 -7 -6 2 -17z"/>
<path d="M543 270 c2 -8 8 -15 13 -15 21 0 34 -18 29 -36 -4 -11 -2 -19 4 -19
6 0 10 3 10 8 -4 25 4 22 16 -5 8 -18 19 -33 26 -33 8 0 6 7 -4 18 -10 10 -17
23 -17 29 0 12 -47 50 -57 45 -3 -2 -10 2 -15 10 -8 10 -9 10 -5 -2z"/>
<path d="M681 254 c0 -11 3 -14 6 -6 3 7 2 16 -1 19 -3 4 -6 -2 -5 -13z"/>
<path d="M780 205 c13 -16 30 -16 33 -1 1 5 -9 11 -22 13 -20 3 -22 1 -11 -12z"/>
</g>
</svg>
