<svg xmlns="http://www.w3.org/2000/svg" width="328" height="44.05" viewBox="0 0 328 44.05">
  <g id="Gruppe_1393" data-name="Gruppe 1393" transform="translate(-135 -60)">
    <g id="Gruppe_153" data-name="Gruppe 153" transform="translate(135 60)">
      <g id="Gruppe_152" data-name="Gruppe 152" transform="translate(0 0)">
        <path id="Pfad_143" data-name="Pfad 143" d="M279.8,23.555l-11.33.015-.012-9.262-3.986.006.028,22.129,3.986-.006-.012-9.6,11.33-.012.012,9.6,3.955-.006-.028-22.129-3.955.006ZM252.329,36.741a12.767,12.767,0,0,0,4.2-.695,9.369,9.369,0,0,0,3.322-1.951L258.5,31.147a11.093,11.093,0,0,1-2.979,1.744,8.9,8.9,0,0,1-3.14.553,6.107,6.107,0,0,1-4.946-2.062,9.105,9.105,0,0,1-1.747-6,9.041,9.041,0,0,1,1.732-5.964,6.107,6.107,0,0,1,4.943-2.078,8.977,8.977,0,0,1,3.14.546,11.076,11.076,0,0,1,2.982,1.738l1.346-2.954a9.3,9.3,0,0,0-3.328-1.939,12.6,12.6,0,0,0-4.2-.685,11.24,11.24,0,0,0-5.7,1.4,9.347,9.347,0,0,0-3.732,3.961,13.019,13.019,0,0,0-1.294,5.98,13.1,13.1,0,0,0,1.309,5.992,9.313,9.313,0,0,0,3.742,3.967,11.224,11.224,0,0,0,5.7,1.389m-14.6-.266,0-3.2-10.861.015-.006-6.468,10.231-.012-.006-3.171-10.231.012-.006-6.088,10.858-.012,0-3.2-14.812.019.025,22.126ZM212,36.509l-.025-18.8,7.221-.009-.006-3.328L200.7,14.4l0,3.325,7.221-.009.022,18.8Zm-28.5-3.263-.019-15.535,3.859-.006q7.627-.009,7.638,7.746.009,7.784-7.619,7.792Zm-4.044,3.3,8.159-.009q5.432-.009,8.425-2.93t2.985-8.166q0-5.242-3.007-8.141t-8.431-2.893l-8.159.009Zm-4.612.006-.006-3.2-10.858.015-.009-6.465,10.231-.015,0-3.167-10.231.012-.009-6.091,10.861-.012,0-3.2-14.815.019.028,22.129Zm-31.3-7.619-7.616-14.46-3.2,0,.028,22.129,3.578-.006-.049-14.47,5.884,10.885,2.7,0,5.826-11.058.019,14.627,3.575,0-.028-22.129-3.167.006Zm-33.761,7.98a12.517,12.517,0,0,0,4.689-.806,6.606,6.606,0,0,0,3.041-2.294,5.877,5.877,0,0,0,1.05-3.47,4.773,4.773,0,0,0-.932-3.013,6.737,6.737,0,0,0-2.667-1.957,25.162,25.162,0,0,0-4.538-1.392,12.815,12.815,0,0,1-3.735-1.281,2.2,2.2,0,0,1-1.1-1.976,2.76,2.76,0,0,1,1.238-2.4,5.787,5.787,0,0,1,3.371-.867,10.216,10.216,0,0,1,6.532,2.346l1.346-2.954a9.633,9.633,0,0,0-3.455-1.923,13.792,13.792,0,0,0-4.427-.7,10.944,10.944,0,0,0-4.489.867,7.01,7.01,0,0,0-3.007,2.4,5.942,5.942,0,0,0-1.065,3.485,5.212,5.212,0,0,0,.883,3.106,6.313,6.313,0,0,0,2.609,2,22.329,22.329,0,0,0,4.489,1.377,14.678,14.678,0,0,1,3.816,1.25,2.092,2.092,0,0,1,1.145,1.914,2.516,2.516,0,0,1-1.235,2.244,6.535,6.535,0,0,1-3.532.806,12.6,12.6,0,0,1-3.844-.562,11.1,11.1,0,0,1-3.377-1.781l-1.346,2.951A11.037,11.037,0,0,0,105,36.231a15.958,15.958,0,0,0,4.773.685m-20.968.028a12.532,12.532,0,0,0,4.693-.809,6.586,6.586,0,0,0,3.041-2.294,5.87,5.87,0,0,0,1.05-3.47,4.79,4.79,0,0,0-.929-3.013A6.79,6.79,0,0,0,93.987,25.4a25.316,25.316,0,0,0-4.535-1.389,12.861,12.861,0,0,1-3.739-1.284,2.2,2.2,0,0,1-1.1-1.976,2.761,2.761,0,0,1,1.235-2.4,5.828,5.828,0,0,1,3.374-.868,10.216,10.216,0,0,1,6.532,2.346L97.1,16.878a9.625,9.625,0,0,0-3.458-1.926,13.844,13.844,0,0,0-4.424-.7,10.994,10.994,0,0,0-4.489.868,7.061,7.061,0,0,0-3.01,2.4,5.961,5.961,0,0,0-1.062,3.485,5.2,5.2,0,0,0,.883,3.109,6.348,6.348,0,0,0,2.606,2A22.772,22.772,0,0,0,88.64,27.5a14.606,14.606,0,0,1,3.813,1.25A2.094,2.094,0,0,1,93.6,30.662a2.535,2.535,0,0,1-1.238,2.244,6.509,6.509,0,0,1-3.532.8,12.507,12.507,0,0,1-3.844-.559,11.107,11.107,0,0,1-3.377-1.784l-1.346,2.951a11.1,11.1,0,0,0,3.769,1.942,16.137,16.137,0,0,0,4.77.685M75.569,14.55l-4.05.006.028,22.126,4.05-.006ZM57.95,31.144,52.31,14.578l-2.856,0L43.7,31.067,38.186,14.6l-4.078.006,7.811,22.117,3.294,0L50.782,20.8,56.354,36.7l3.3,0,7.786-22.138-3.859.006ZM22.71,37.025a12.517,12.517,0,0,0,4.689-.806,6.615,6.615,0,0,0,3.044-2.294,5.874,5.874,0,0,0,1.047-3.47,4.771,4.771,0,0,0-.929-3.013,6.749,6.749,0,0,0-2.67-1.957,25.005,25.005,0,0,0-4.538-1.392,12.85,12.85,0,0,1-3.735-1.281,2.2,2.2,0,0,1-1.1-1.976,2.767,2.767,0,0,1,1.238-2.4,5.8,5.8,0,0,1,3.374-.868,10.214,10.214,0,0,1,6.529,2.346L31,16.958a9.633,9.633,0,0,0-3.455-1.923,13.778,13.778,0,0,0-4.427-.7,10.929,10.929,0,0,0-4.486.867,7.038,7.038,0,0,0-3.01,2.4,5.979,5.979,0,0,0-1.065,3.485,5.212,5.212,0,0,0,.883,3.106,6.313,6.313,0,0,0,2.609,2,22.365,22.365,0,0,0,4.492,1.377,14.647,14.647,0,0,1,3.813,1.25A2.1,2.1,0,0,1,27.5,30.742a2.525,2.525,0,0,1-1.238,2.244,6.516,6.516,0,0,1-3.529.806,12.621,12.621,0,0,1-3.847-.562,11.083,11.083,0,0,1-3.374-1.781L14.171,34.4a11.051,11.051,0,0,0,3.766,1.939,15.972,15.972,0,0,0,4.773.685" transform="translate(-14.171 -14.05)" fill="#254f5e"/>
      </g>
      <rect id="Rechteck_9" data-name="Rechteck 9" width="279.779" height="9.092" transform="matrix(1, -0.001, 0.001, 1, 0.017, 34.957)" fill="#e20031"/>
      <rect id="Rechteck_10" data-name="Rechteck 10" width="34.972" height="9.092" transform="matrix(1, -0.001, 0.001, 1, 293.017, 34.594)" fill="#e20031"/>
      <path id="Pfad_144" data-name="Pfad 144" d="M0,0H11.191V11.191H0Z" transform="matrix(1, -0.001, 0.001, 1, 280.796, 22.369)" fill="#e20031"/>
    </g>
  </g>
</svg>
